<mxfile host="app.diagrams.net" modified="2024-04-06T00:42:29.901Z" agent="Mozilla/5.0 (Windows NT 10.0; Win64; x64) AppleWebKit/537.36 (KHTML, like Gecko) Chrome/109.0.0.0 Safari/537.36 SLBrowser/9.0.3.1311 SLBChan/11" etag="IyDCgGoKWBBP91dKa9F6" version="24.2.0" type="github">
  <diagram name="第 1 页" id="NtcVsVLaRbumFOKemuv2">
    <mxGraphModel dx="713" dy="302" grid="1" gridSize="10" guides="1" tooltips="1" connect="1" arrows="1" fold="1" page="1" pageScale="1" pageWidth="827" pageHeight="1169" math="0" shadow="0">
      <root>
        <mxCell id="0" />
        <mxCell id="1" parent="0" />
        <mxCell id="y2YLIuxYfXUynwP3sAxS-4" value="" style="ellipse;html=1;shape=startState;fillColor=#000000;strokeColor=#ff0000;" vertex="1" parent="1">
          <mxGeometry x="150" y="50" width="30" height="30" as="geometry" />
        </mxCell>
        <mxCell id="y2YLIuxYfXUynwP3sAxS-5" value="" style="edgeStyle=orthogonalEdgeStyle;html=1;verticalAlign=bottom;endArrow=open;endSize=8;strokeColor=#ff0000;rounded=0;" edge="1" source="y2YLIuxYfXUynwP3sAxS-4" parent="1">
          <mxGeometry relative="1" as="geometry">
            <mxPoint x="165" y="140" as="targetPoint" />
          </mxGeometry>
        </mxCell>
        <mxCell id="y2YLIuxYfXUynwP3sAxS-7" value="用户注册" style="rounded=1;whiteSpace=wrap;html=1;arcSize=40;fontColor=#000000;fillColor=#ffffc0;strokeColor=#ff0000;" vertex="1" parent="1">
          <mxGeometry x="105" y="140" width="120" height="40" as="geometry" />
        </mxCell>
        <mxCell id="y2YLIuxYfXUynwP3sAxS-8" value="" style="edgeStyle=orthogonalEdgeStyle;html=1;verticalAlign=bottom;endArrow=open;endSize=8;strokeColor=#ff0000;rounded=0;" edge="1" source="y2YLIuxYfXUynwP3sAxS-7" parent="1">
          <mxGeometry relative="1" as="geometry">
            <mxPoint x="165" y="240" as="targetPoint" />
          </mxGeometry>
        </mxCell>
        <mxCell id="y2YLIuxYfXUynwP3sAxS-9" value="实名认证" style="rounded=1;whiteSpace=wrap;html=1;arcSize=40;fontColor=#000000;fillColor=#ffffc0;strokeColor=#ff0000;" vertex="1" parent="1">
          <mxGeometry x="105" y="240" width="120" height="40" as="geometry" />
        </mxCell>
        <mxCell id="y2YLIuxYfXUynwP3sAxS-10" value="" style="edgeStyle=orthogonalEdgeStyle;html=1;verticalAlign=bottom;endArrow=open;endSize=8;strokeColor=#ff0000;rounded=0;" edge="1" source="y2YLIuxYfXUynwP3sAxS-9" parent="1">
          <mxGeometry relative="1" as="geometry">
            <mxPoint x="165" y="340" as="targetPoint" />
          </mxGeometry>
        </mxCell>
        <mxCell id="y2YLIuxYfXUynwP3sAxS-16" value="实名认证成功？" style="rhombus;whiteSpace=wrap;html=1;fontColor=#000000;fillColor=#ffffc0;strokeColor=#ff0000;" vertex="1" parent="1">
          <mxGeometry x="115" y="340" width="100" height="50" as="geometry" />
        </mxCell>
        <mxCell id="y2YLIuxYfXUynwP3sAxS-17" value="no" style="edgeStyle=orthogonalEdgeStyle;html=1;align=left;verticalAlign=bottom;endArrow=open;endSize=8;strokeColor=#ff0000;rounded=0;entryX=1;entryY=0.5;entryDx=0;entryDy=0;" edge="1" source="y2YLIuxYfXUynwP3sAxS-16" parent="1" target="y2YLIuxYfXUynwP3sAxS-7">
          <mxGeometry x="-1" relative="1" as="geometry">
            <mxPoint x="360" y="160" as="targetPoint" />
            <Array as="points">
              <mxPoint x="291" y="365" />
              <mxPoint x="291" y="160" />
            </Array>
          </mxGeometry>
        </mxCell>
        <mxCell id="y2YLIuxYfXUynwP3sAxS-18" value="yes" style="edgeStyle=orthogonalEdgeStyle;html=1;align=left;verticalAlign=top;endArrow=open;endSize=8;strokeColor=#ff0000;rounded=0;" edge="1" source="y2YLIuxYfXUynwP3sAxS-16" parent="1">
          <mxGeometry x="-1" relative="1" as="geometry">
            <mxPoint x="165" y="450" as="targetPoint" />
          </mxGeometry>
        </mxCell>
      </root>
    </mxGraphModel>
  </diagram>
</mxfile>
